<svg id="Capa_1" enable-background="new 0 0 511.97 511.97" height="512" viewBox="0 0 511.97 511.97" width="512" xmlns="http://www.w3.org/2000/svg"><g><path d="m213.688 501.854c55.316 13.487 113.798 13.487 169.114 0 6.782-1.653 11.519-7.683 11.519-14.664v-307.7c0-4.511-2.56-8.435-6.304-10.396v-28.578c4.071-2.289 6.272-6.687 5.941-11.094l-7.768-103.515c-.759-10.122-8.28-18.371-18.29-20.06-46.221-7.796-93.091-7.796-139.31 0-10.009 1.688-17.53 9.937-18.29 20.059l-1.351 18.003h-23.136c-25.798 0-46.787 20.989-46.787 46.787s20.989 46.787 46.787 46.787h19.145c.966 1.249 2.159 2.27 3.515 3.033v28.578c-3.79 1.986-6.303 5.939-6.303 10.396 0 48.957-8.749 97.01-26.002 142.826-1.46 3.876.499 8.202 4.375 9.662 3.901 1.468 8.211-.524 9.662-4.376 4.564-12.118 8.553-24.387 11.965-36.784v32.872c-8.533 24.396-19.618 48.374-32.645 70.933l-24.559 42.537c-3.081 5.337-3.08 11.458 0 16.792 3.081 5.336 8.381 8.396 14.542 8.396 9.324 0 18.09-3.631 24.684-10.225 5.112-5.112 7.928-11.909 7.93-19.139l.009-48.421c3.535-6.816 6.885-13.711 10.039-20.659v68.235c-.031.278-.048.56-.048.846-.001 9.9-3.858 19.208-10.859 26.208-8.482 8.482-19.759 13.153-31.754 13.153-9.686 0-18.36-5.008-23.203-13.396s-4.843-18.404 0-26.792l24.559-42.537c5.333-9.238 10.375-18.796 14.985-28.41 1.791-3.735.215-8.215-3.52-10.006-3.736-1.791-8.215-.215-10.006 3.52-4.445 9.271-9.307 18.488-14.45 27.396l-24.559 42.537c-7.554 13.084-7.555 28.708 0 41.792 7.554 13.084 21.084 20.896 36.193 20.896 16.693 0 31.74-6.756 42.661-17.85v17.693c0 6.982 4.737 13.012 11.519 14.665zm-36.567-68.872c0 3.224-1.256 6.255-3.536 8.535-3.76 3.76-8.76 5.831-14.077 5.831-.586 0-1.073-.066-1.553-.897-.479-.829-.292-1.284 0-1.791l19.169-33.202zm202.199 54.208c0 .043-.029.081-.071.091-52.993 12.921-109.014 12.921-162.008 0-.042-.01-.071-.047-.071-.091 0-340.935 0 34.436 0-304.429h162.15zm-148.235-466.552c44.564-7.518 89.756-7.517 134.32 0 3.189.538 5.585 3.166 5.827 6.39l7.504 100h-110.194c-4.142 0-7.5 3.358-7.5 7.5s3.358 7.5 7.5 7.5h104.475v25.733h-149.544v-25.733h10.069c4.142 0 7.5-3.358 7.5-7.5s-3.358-7.5-7.5-7.5h-15.789l1.607-21.413c.003-.04.006-.079.009-.119l2.138-28.484c.002-.019.003-.038.004-.057 2.262-30.137-2.467 32.871 3.747-49.927.241-3.224 2.638-5.852 5.827-6.39zm-26.157 76.845h-19.116c-3.742 0-6.787-3.044-6.787-6.787s3.045-6.787 6.787-6.787h20.134zm-50.903-6.787c0-17.527 14.26-31.787 31.787-31.787h22.01l-.75 10h-21.26c-12.014 0-21.787 9.773-21.787 21.787 0 12.013 9.773 21.787 21.787 21.787h17.99l-.75 10h-17.24c-17.527 0-31.787-14.259-31.787-31.787z"/><path d="m323.836 478.27h15.287c8.837 0 16.026-7.189 16.026-16.026v-175.02c0-4.142-3.358-7.5-7.5-7.5s-7.5 3.358-7.5 7.5v175.02c0 .565-.46 1.026-1.026 1.026h-15.287c-.566 0-1.026-.46-1.026-1.026v-250.478c0-.566.46-1.026 1.026-1.026h15.287c.566 0 1.026.46 1.026 1.026v40.458c0 4.142 3.358 7.5 7.5 7.5s7.5-3.358 7.5-7.5v-40.458c0-8.837-7.189-16.026-16.026-16.026h-15.287c-8.837 0-16.026 7.189-16.026 16.026v250.478c-.001 8.837 7.189 16.026 16.026 16.026z"/></g></svg>