<svg id="Capa_1" enable-background="new 0 0 512 512" height="512" viewBox="0 0 512 512" width="512" xmlns="http://www.w3.org/2000/svg"><g><path d="m397.344 152.91-24.211-122.671c-3.458-17.521-18.931-30.239-36.79-30.239h-85.686c-17.859 0-33.332 12.718-36.79 30.239l-24.211 122.671c-9.328 2.746-16.156 11.386-16.156 21.59v37.5h-31.285c-3.096-8.73-11.437-15-21.215-15-12.406 0-22.5 10.094-22.5 22.5v195c0 12.406 10.094 22.5 22.5 22.5 9.778 0 18.119-6.27 21.215-15h31.285v82.5c0 4.143 3.357 7.5 7.5 7.5h225c4.143 0 7.5-3.357 7.5-7.5v-330c0-10.204-6.828-18.844-16.156-21.59zm-168.76-119.766c2.074-10.513 11.357-18.144 22.073-18.144h85.686c10.716 0 19.999 7.631 22.073 18.144l17.538 88.856h-164.908zm-32.584 133.856c3.582 0 6.664-2.533 7.358-6.048l4.728-23.952h170.829l2.96 15h-155.875c-4.143 0-7.5 3.357-7.5 7.5s3.357 7.5 7.5 7.5h164.846c.084.002.168.001.254.001 4.09.054 7.4 3.396 7.4 7.499v7.5h-210v-7.5c0-4.136 3.364-7.5 7.5-7.5zm-22.5 210h-30v-120h30zm225-180v240h-210v-240zm-262.5 210c-4.143 0-7.5 3.357-7.5 7.5 0 4.136-3.364 7.5-7.5 7.5s-7.5-3.364-7.5-7.5v-195c0-4.136 3.364-7.5 7.5-7.5s7.5 3.364 7.5 7.5c0 4.143 3.357 7.5 7.5 7.5h37.5v15h-37.5c-4.143 0-7.5 3.357-7.5 7.5v135c0 4.143 3.357 7.5 7.5 7.5h37.5v15zm52.5 90v-45h210v45z"/></g></svg>