<svg id="Capa_1" enable-background="new 0 0 512 512" height="512" viewBox="0 0 512 512" width="512" xmlns="http://www.w3.org/2000/svg"><g><path d="m441.615 149.418-10.274-95.387-1.598-33.705c-.54-11.398-9.902-20.326-21.312-20.326h-234.566c-4.143 0-7.5 3.358-7.5 7.5s3.357 7.5 7.5 7.5h234.566c3.389 0 6.168 2.651 6.329 6.036l1.236 26.083h-319.992l1.236-26.083c.162-3.385 2.941-6.036 6.33-6.036h40.295c4.143 0 7.5-3.358 7.5-7.5s-3.357-7.5-7.5-7.5h-40.295c-11.41 0-20.772 8.928-21.312 20.326l-1.598 33.705-10.282 95.466c-8.035 82.807-8.035 166.781 0 249.588l10.297 106.14c.373 3.844 3.604 6.776 7.465 6.776h335.721c3.861 0 7.092-2.932 7.465-6.776l10.297-106.139c8.035-82.809 8.035-166.782-.008-249.668zm-14.922 248.218-5.988 61.718h-209.581c-4.143 0-7.5 3.358-7.5 7.5s3.357 7.5 7.5 7.5h208.126l-2.197 22.646h-322.105l-2.197-22.646h88.16c4.143 0 7.5-3.358 7.5-7.5s-3.357-7.5-7.5-7.5h-89.615l-5.988-61.718c-7.941-81.846-7.941-164.845-.008-246.612l9.575-88.904h322.25l9.567 88.826c7.942 81.845 7.942 164.844.001 246.69z"/><path d="m256 118.161c-28.232 0-54.948 12.325-73.297 33.815-2.689 3.15-2.316 7.884.834 10.574 3.151 2.69 7.885 2.316 10.574-.834 15.494-18.147 38.052-28.555 61.889-28.555 44.851 0 81.34 36.489 81.34 81.34s-36.489 81.34-81.34 81.34-81.34-36.489-81.34-81.34c0-10.245 1.878-20.229 5.58-29.674 1.512-3.856-.389-8.208-4.245-9.72-3.857-1.512-8.208.389-9.72 4.245-4.39 11.197-6.615 23.023-6.615 35.148 0 53.122 43.218 96.34 96.34 96.34s96.34-43.218 96.34-96.34c0-53.121-43.217-96.339-96.34-96.339z"/><path d="m323.102 351.173h-134.203c-4.142 0-7.5 3.358-7.5 7.5s3.358 7.5 7.5 7.5h134.203c4.143 0 7.5-3.358 7.5-7.5 0-4.143-3.357-7.5-7.5-7.5z"/><path d="m323.102 385.226h-134.203c-4.142 0-7.5 3.358-7.5 7.5s3.358 7.5 7.5 7.5h134.203c4.143 0 7.5-3.358 7.5-7.5s-3.357-7.5-7.5-7.5z"/><path d="m293.048 221.617c0-36.568-31.242-60.224-32.572-61.213-2.656-1.976-6.295-1.976-8.951 0-1.33.989-32.572 24.645-32.572 61.213 0 26.723 16.619 48.463 37.048 48.463s37.047-21.74 37.047-48.463zm-59.095 0c0-21.479 14.485-38.07 22.047-45.267 7.569 7.204 22.049 23.794 22.049 45.267 0 18.139-10.097 33.463-22.048 33.463s-22.048-15.324-22.048-33.463z"/></g></svg>